<?xml version="1.0" encoding="UTF-8"?>
<svg width="291px" height="102px" viewBox="0 0 291 102" version="1.1" xmlns="http://www.w3.org/2000/svg" xmlns:xlink="http://www.w3.org/1999/xlink">
    <!-- Generator: Sketch 3.6.1 (26313) - http://www.bohemiancoding.com/sketch -->
    <title>Logo Get a Lead Beta</title>
    <desc>Created with Sketch.</desc>
    <defs></defs>
    <g id="Page-1" stroke="none" stroke-width="1" fill="none" fill-rule="evenodd">
        <g id="Logo-Get-a-Lead-Beta" transform="translate(0.000000, -1.000000)">
            <g id="SvgjsUse1051" transform="translate(0.000000, 58.754777)" fill="#193441">
                <g id="t1496141575442">
                    <path d="M25.721646,1.38187 C27.9367593,1.38187 29.7878503,2.41972 31.274919,4.49542 L31.274919,4.843952 L29.183728,7.632206 L27.44107,7.632206 L26.046942,6.935143 C22.6855467,6.935143 17.4808053,10.180361 10.432718,16.670797 C7.41210933,21.364359 5.901805,25.415073 5.901805,28.822939 C6.38200433,34.6163117 9.16251333,37.512998 14.243332,37.512998 C19.153758,37.512998 23.204472,35.4295527 26.395474,31.262662 C26.395474,30.859914 23.0418237,30.3952047 16.334523,29.868534 C14.2433323,28.8926453 13.197737,27.382341 13.197737,25.337621 L13.197737,24.315261 C13.197737,23.680159 20.842201,22.9830957 36.131129,22.224071 L40.662042,21.875539 C42.211072,21.875539 43.4812767,22.797212 44.472656,24.640558 L44.472656,25.337621 C43.6981413,27.1964577 39.415073,28.125876 31.623451,28.125876 L31.623451,28.474407 L33.017578,30.217066 L33.017578,31.262662 C33.017578,34.7944507 29.423828,38.3804553 22.236328,42.020676 L16.334523,43.066272 C11.6564517,43.066272 7.14102867,40.9828263 2.788254,36.815935 C0.929418,34.554351 0,32.0061963 0,29.171471 L0,28.125876 C0,23.1689793 2.89668633,17.1432517 8.690059,10.048693 C15.970501,4.270811 21.6476967,1.38187 25.721646,1.38187 L25.721646,1.38187 Z M63.820818,17.298155 C67.7863347,17.917767 69.769093,19.7998387 69.769093,22.94437 C69.769093,26.243804 67.143487,28.915881 61.892275,30.960601 C56.656553,33.1757137 53.364864,34.28327 52.017208,34.28327 L51.366615,34.28327 L51.064554,33.98121 L50.971614,33.98121 L50.8322,34.143858 L50.8322,35.537985 C51.1729867,37.598195 52.1488757,38.6283 53.759867,38.6283 C55.7736057,38.6283 61.0093277,36.622306 69.467033,32.610318 L74.532361,31.704135 L74.950599,32.168844 L74.950599,32.563847 C74.950599,36.049165 68.5685947,39.5267377 55.804586,42.996565 L54.061928,43.298626 L52.319269,43.298626 C48.8649317,43.298626 46.680799,40.7194907 45.766871,35.56122 L46.045696,32.285022 L45.185985,29.89177 C45.185985,28.1258753 46.4561897,26.8479253 48.996599,26.05792 C50.654061,22.7120147 54.0232017,20.101899 59.104021,18.227573 C60.3897157,17.607961 61.9619813,17.298155 63.820818,17.298155 L63.820818,17.298155 Z M53.271922,29.008823 L53.155745,29.008823 C58.3449957,28.0174437 62.2253163,26.243804 64.796707,23.687904 L65.005826,23.45555 L65.005826,23.24643 C65.005826,22.7972113 64.029937,22.572602 62.078159,22.572602 L61.497272,22.572602 C58.507644,22.572602 55.7658607,24.718009 53.271922,29.008823 L53.271922,29.008823 Z M88.90814,2.822468 C91.3246267,2.94639 92.53287,3.86031767 92.53287,5.564251 L89.51226,14.997845 C96.5448533,15.431573 100.06115,16.3222653 100.06115,17.669922 L100.06115,17.971983 C99.2401633,19.1492457 98.2332933,19.737877 97.04054,19.737877 L96.43642,19.737877 L93.43905,19.459052 L92.02169,20.202586 L90.81344,19.923761 C88.4124467,19.923761 87.21195,22.6887797 87.21195,28.218817 C86.7472367,33.1912043 88.6215633,35.8710267 92.83493,36.258284 L94.04317,36.560345 L97.64467,35.979459 L98.24879,36.862406 L98.24879,37.443292 C98.24879,40.0921333 96.44417,41.416554 92.83493,41.416554 C87.66117,41.416554 84.2455567,38.5508483 82.58809,32.819437 L81.98397,28.35823 L83.49428,20.039938 L78.684537,20.922885 L78.080415,20.922885 C76.4694237,20.922885 75.663928,20.1328797 75.663928,18.552869 C75.663928,16.9728583 76.2680497,16.182853 77.476293,16.182853 C82.495151,15.5942217 85.00458,15.098532 85.00458,14.695784 C87.14224,6.78024 88.3427367,2.822468 88.60607,2.822468 L88.90814,2.822468 Z M137.85129,17.367861 C139.524243,17.367861 140.724743,18.8781653 141.45279,21.898774 L140.22131,30.193831 L140.22131,30.797953 C140.22131,34.5930763 143.11025,36.7617183 148.88813,37.303879 C149.864023,37.303879 150.35197,37.5904497 150.35197,38.163591 C150.35197,40.5645877 148.94235,41.765086 146.12311,41.765086 L145.82105,41.765086 C142.382203,41.765086 139.167967,39.1084993 136.17834,33.795326 L136.10864,33.795326 C131.41508,40.1308593 127.898783,43.298626 125.55975,43.298626 L124.35151,43.298626 C121.34639,43.298626 119.526277,40.9750807 118.89117,36.32799 C118.89117,29.4193153 122.825707,23.5175103 130.69478,18.622575 C133.436567,17.786099 135.822073,17.367861 137.8513,17.367861 L137.85129,17.367861 Z M123.58473,35.468279 L123.58473,36.83917 L123.84032,38.070649 L123.93322,38.070649 C125.234407,38.070649 127.999423,35.7161233 132.22827,31.007072 L136.24801,22.851428 L136.15511,22.758488 L133.87803,22.758488 C130.284283,22.758488 126.946123,26.5303763 123.86355,34.074153 L123.58473,35.468279 Z M171.18023,0.568629 C174.154363,1.281183 176.036433,2.16413 176.82644,3.21747 L176.82644,12.860183 C176.82644,18.5761043 176.26879,26.5381193 175.15349,36.746228 L175.50202,36.746228 C176.338493,36.746228 180.985583,34.8719017 189.44329,31.123249 L193.41655,30.449421 L195.4148,30.449421 C198.51286,30.8986397 200.06189,32.0061963 200.06189,33.772091 C200.06189,35.445043 196.8554,36.5525993 190.44242,37.09476 C181.659413,41.075768 175.788587,43.066272 172.82994,43.066272 C170.397967,43.066272 169.18198,41.850283 169.18198,39.418305 L169.18198,38.419181 C170.947873,25.082031 171.83082,16.6707973 171.83082,13.18548 L171.83082,12.186355 L170.5064,3.21747 L170.5064,1.567753 L171.18023,0.568629 Z M219.41006,17.298155 C223.375573,17.917767 225.35833,19.7998387 225.35833,22.94437 C225.35833,26.243804 222.732723,28.915881 217.48151,30.960601 C212.24579,33.1757137 208.954103,34.28327 207.60645,34.28327 L206.95585,34.28327 L206.65379,33.98121 L206.56089,33.98121 L206.42148,34.143858 L206.42148,35.537985 C206.762267,37.598195 207.738153,38.6283 209.34914,38.6283 C211.36288,38.6283 216.598603,36.622306 225.05631,32.610318 L230.12164,31.704135 L230.53988,32.168844 L230.53988,32.563847 C230.53988,36.049165 224.157873,39.5267377 211.39386,42.996565 L209.65121,43.298626 L207.90855,43.298626 C204.45421,43.298626 202.270077,40.7194907 201.35615,35.56122 L201.63497,32.285022 L200.77526,29.89177 C200.77526,28.1258753 202.045467,26.8479253 204.58588,26.05792 C206.24334,22.7120147 209.61248,20.101899 214.6933,18.227573 C215.978993,17.607961 217.55126,17.298155 219.4101,17.298155 L219.41006,17.298155 Z M208.86116,29.008823 L208.74498,29.008823 C213.934233,28.0174437 217.814553,26.243804 220.38594,23.687904 L220.59506,23.45555 L220.59506,23.24643 C220.59506,22.7972113 219.619173,22.572602 217.6674,22.572602 L217.08651,22.572602 C214.096883,22.572602 211.3551,24.718009 208.86116,29.008823 L208.86116,29.008823 Z M250.21329,17.367861 C251.886243,17.367861 253.086743,18.8781653 253.81479,21.898774 L252.58331,30.193831 L252.58331,30.797953 C252.58331,34.5930763 255.47225,36.7617183 261.25013,37.303879 C262.226023,37.303879 262.71397,37.5904497 262.71397,38.163591 C262.71397,40.5645877 261.304353,41.765086 258.48512,41.765086 L258.18305,41.765086 C254.744203,41.765086 251.529967,39.1084993 248.54034,33.795326 L248.47064,33.795326 C243.777073,40.1308593 240.260773,43.298626 237.92174,43.298626 L236.7135,43.298626 C233.70838,43.298626 231.88827,40.9750807 231.25317,36.32799 C231.25317,29.4193153 235.187707,23.5175103 243.05678,18.622575 C245.79856,17.786099 248.184063,17.367861 250.21329,17.367861 L250.21329,17.367861 Z M235.94673,35.468279 L235.94673,36.83917 L236.20232,38.070649 L236.29522,38.070649 C237.596407,38.070649 240.361427,35.7161233 244.59028,31.007072 L248.61001,22.851428 L248.51711,22.758488 L246.24003,22.758488 C242.646283,22.758488 239.308123,26.5303763 236.22555,34.074153 L235.94673,35.468279 Z M284.50185,5.564251 L285.12921,5.564251 C286.69373,5.82758633 287.53795,6.276805 287.66187,6.911907 L287.66187,8.724273 L287.35981,19.296404 C288.986297,20.3032733 289.79954,21.6586747 289.79954,23.362608 L288.82365,24.338497 L287.35981,24.338497 L287.35981,25.430563 L287.66187,30.495892 L288.14982,30.495892 C289.71434,30.495892 290.566307,30.8289333 290.70572,31.495016 L290.70572,31.820312 C290.70572,33.4932647 289.993167,34.833176 288.56806,35.840046 L288.56806,36.049165 L289.79954,41.230671 L289.79954,42.183324 C289.660127,42.8494073 288.800413,43.182449 287.2204,43.182449 C285.33058,42.175579 284.38567,40.5181167 284.38567,38.210062 L284.38567,37.117996 C280.125843,37.9234913 276.927097,38.326239 274.78943,38.326239 L272.95383,38.326239 C267.671637,38.326239 264.596813,36.467403 263.72936,32.749731 L263.4273,31.541487 C263.4273,26.9563577 270.010677,22.866918 283.17743,19.273168 L282.57331,9.932516 C282.99155,7.02033933 283.634397,5.564251 284.50185,5.564251 L284.50185,5.564251 Z M268.81792,31.843548 L268.81792,32.052667 C270.86264,33.0440463 272.95383,33.640423 275.09149,33.841797 L283.34008,32.633553 L283.17743,32.470905 L283.17743,29.38059 C283.17743,25.8178207 282.720467,24.036436 281.80654,24.036436 C275.06826,26.0501753 270.73872,28.652546 268.81792,31.843548 L268.81792,31.843548 Z" id="path4490"></path>
                </g>
            </g>
            <g id="SvgjsUse1052" transform="translate(83.352852, 0.987033)" fill="#2176FF">
                <g id="a1496141575442" transform="translate(-0.000000, -0.000000)">
                    <path d="M27.24,1.63 L31.3,14.13 C31.74978,15.5117798 33.0368611,16.4478388 34.49,16.45 L47.63,16.45 C48.6533438,16.4483425 49.5611496,17.1063991 49.877915,18.0794843 C50.1946805,19.0525696 49.8482171,20.1189246 49.02,20.72 L38.39,28.44 C37.2154334,29.2948316 36.7232472,30.8076992 37.17,32.19 L41.23,44.69 C41.5459813,45.6620469 41.200311,46.7270191 40.3736897,47.3281983 C39.5470683,47.9293775 38.4274017,47.9301048 37.6,47.33 L26.97,39.61 C25.7944605,38.7591903 24.2055395,38.7591903 23.03,39.61 L12.4,47.33 C11.5725983,47.9301048 10.4529317,47.9293775 9.62631035,47.3281983 C8.79968897,46.7270191 8.45401869,45.6620469 8.77,44.69 L12.83,32.19 C13.2767528,30.8076992 12.7845666,29.2948316 11.61,28.44 L0.98,20.72 C0.151782903,20.1189246 -0.194680467,19.0525696 0.122084986,18.0794843 C0.438850439,17.1063991 1.34665622,16.4483425 2.37,16.45 L15.51,16.45 C16.9631389,16.4478388 18.25022,15.5117798 18.7,14.13 L22.76,1.63 C23.0802023,0.664609573 23.9828922,0.0129670248 25,0.0129670248 C26.0171078,0.0129670248 26.9197977,0.664609573 27.24,1.63 L27.24,1.63 Z" id="path4487"></path>
                </g>
            </g>
            <text id="tspan4488" fill="#FF3366" font-family="Helvetica" font-size="26.666666" font-weight="normal">
                <tspan x="152.47026" y="48.464359">Beta</tspan>
            </text>
        </g>
    </g>
</svg>