<?xml version="1.0" encoding="UTF-8" standalone="no"?>
<svg
   xmlns:dc="http://purl.org/dc/elements/1.1/"
   xmlns:cc="http://creativecommons.org/ns#"
   xmlns:rdf="http://www.w3.org/1999/02/22-rdf-syntax-ns#"
   xmlns:svg="http://www.w3.org/2000/svg"
   xmlns="http://www.w3.org/2000/svg"
   xmlns:xlink="http://www.w3.org/1999/xlink"
   xmlns:sodipodi="http://sodipodi.sourceforge.net/DTD/sodipodi-0.dtd"
   xmlns:inkscape="http://www.inkscape.org/namespaces/inkscape"
   id="SvgjsSvg1049"
   width="360"
   height="275"
   version="1.1"
   sodipodi:docname="lightblue_logo_transparent_background.svg"
   inkscape:export-filename="C:\Users\essec\Google Drive\Visual\Logo Get a Lead\png\bitmap.png"
   inkscape:export-xdpi="222.22"
   inkscape:export-ydpi="222.22"
   inkscape:version="0.92.1 r15371">
  <metadata
     id="metadata4499">
    <rdf:RDF>
      <cc:Work
         rdf:about="">
        <dc:format>image/svg+xml</dc:format>
        <dc:type
           rdf:resource="http://purl.org/dc/dcmitype/StillImage" />
      </cc:Work>
    </rdf:RDF>
  </metadata>
  <sodipodi:namedview
     pagecolor="#ffffff"
     bordercolor="#666666"
     borderopacity="1"
     objecttolerance="10"
     gridtolerance="10"
     guidetolerance="10"
     inkscape:pageopacity="0"
     inkscape:pageshadow="2"
     inkscape:window-width="3000"
     inkscape:window-height="1875"
     id="namedview4497"
     showgrid="false"
     inkscape:zoom="5.8109091"
     inkscape:cx="180"
     inkscape:cy="137.5"
     inkscape:window-x="-13"
     inkscape:window-y="2147"
     inkscape:window-maximized="1"
     inkscape:current-layer="SvgjsSvg1049" />
  <defs
     id="SvgjsDefs1050">
    <svg
       id="a1496141575442"
       data-name="Layer 1"
       width="50"
       height="47.79"
       viewBox="0 0 50 47.79"
       version="1.1">
      <title
         id="title4485">assets</title>
      <path
         d="M577.21,131.86l4.06,12.5a3.36,3.36,0,0,0,3.19,2.32h13.14a2.36,2.36,0,0,1,1.39,4.27l-10.63,7.72a3.36,3.36,0,0,0-1.22,3.75l4.06,12.5a2.36,2.36,0,0,1-3.63,2.64l-10.63-7.72a3.36,3.36,0,0,0-3.94,0l-10.63,7.72a2.36,2.36,0,0,1-3.63-2.64l4.06-12.5a3.36,3.36,0,0,0-1.22-3.75l-10.63-7.72a2.36,2.36,0,0,1,1.39-4.27h13.14a3.36,3.36,0,0,0,3.19-2.32l4.06-12.5A2.36,2.36,0,0,1,577.21,131.86Z"
         transform="translate(-549.97 -130.23)"
         id="path4487" />
    </svg>
    <!--?xml version="1.0"?-->
    <svg
       width="791.41904633621px"
       height="257.06627155172px"
       id="t1496141575442"
       version="1.1">
      <path
         fill="#193441"
         d="M45.721646012931,15.381869612069q3.3226697198276,0,5.5532731681035,3.1135506465517l0,0.34853178879311l-2.0911907327586,2.7882543103448l-1.7426589439655,0l-1.3941271551724-0.69706357758621q-5.0420932112069,0-15.614224137931,9.7356546336207q-4.5309132543104,7.0403421336207-4.5309132543104,12.152141702586q0.72029903017242,8.6900592672414,8.3415274784483,8.6900592672414q7.3656384698276,0,12.152141702586-6.2503367456897q0-0.60412176724138-10.060950969828-1.3941271551724q-3.1367860991379-1.463833512931-3.1367860991379-4.5309132543104l0-1.0223599137931q0-0.95265355603449,22.933391702586-2.0911907327586l4.5309132543104-0.34853178879311q2.3235452586207,0,3.810614224138,2.7650188577586l0,0.69706357758621q-1.1617726293104,2.7882543103448-12.849205280172,2.7882543103448l0,0.34853178879311l1.3941271551724,1.7426589439655l0,1.0455953663793q0,5.2976831896552-10.78125,10.758014547414l-5.9018049568966,1.0455953663793q-7.0171066810345,0-13.546268857759-6.2503367456897q-2.7882543103448-3.3923760775862-2.7882543103448-7.6444639008621l0-1.0455953663793q0-7.4353448275862,8.6900592672414-18.077182112069q10.920662715517-8.6668238146552,17.03158674569-8.6668238146552z M83.820817618535,31.29815463362q5.948275862069,0.92941810344828,5.948275862069,5.6462149784483q0,4.9491514008621-7.8768184267242,8.0162311422414q-7.853582974138,3.3226697198276-9.875067349138,3.3226697198276l-0.6505926724138,0l-0.30206088362069-0.30206088362069l-0.092941810344828,0l-0.13941271551724,0.16264816810345l0,1.3941271551724q0.51117995689655,3.0903151939655,2.9276670258621,3.0903151939655q3.0206088362069,0,15.707165948276-6.0179822198276l5.0653286637931-0.90618265086207l0.41823814655173,0.46470905172414l0,0.39500269396552q0,5.2279768318966-19.146012931035,10.432718211207l-1.7426589439655,0.30206088362069l-1.7426589439655,0q-5.1815059267242,0-6.5523976293104-7.7374057112069l0.27882543103448-3.2761988146552l-0.85971174568966-2.3932516163793q0-2.6488415948276,3.810614224138-3.8338496767242q2.4861934267242-5.0188577586207,10.107421875-7.8303475215518q1.9285425646552-0.92941810344828,4.716796875-0.92941810344828z M73.271922144397,43.008822737069l-0.11617726293104,0q7.7838766163794-1.4870689655172,11.64096174569-5.3209186422414l0.20911907327586-0.23235452586207l0-0.20911907327586q0-0.673828125-2.9276670258621-0.673828125l-0.58088631465518,0q-4.484442349138,0-8.2253502155173,6.4362203663793z M108.90813577586,16.822467672413q3.6247306034483,0.18588362068966,3.6247306034483,2.7417834051724l-3.0206088362069,9.4335937500001q10.548895474138,0.6505926724138,10.548895474138,2.6720770474138l0,0.30206088362069q-1.231478987069,1.7658943965517-3.0206088362069,1.7658943965517l-0.60412176724138,0l-2.9973733836207-0.27882543103448l-1.4173626077586,0.74353448275862l-1.2082435344828-0.27882543103448q-3.6014951508621,0-3.6014951508621,8.2950565732759q-0.69706357758621,7.4585802801725,5.6229795258621,8.0394665948276l1.2082435344828,0.30206088362069l3.6014951508621-0.58088631465518l0.60412176724138,0.88294719827587l0,0.58088631465518q0,3.9732623922414-5.4138604525862,3.9732623922414q-7.7606411637931,0-10.246834590517-8.5971174568966l-0.60412176724138-4.4612068965517l1.5103044181035-8.3182920258621l-4.8097386853449,0.88294719827587l-0.60412176724138,0q-2.4164870689655,0-2.4164870689655-2.3700161637931t1.8123653017241-2.3700161637931q7.5282866379311-0.88294719827587,7.5282866379311-1.4870689655172q3.2064924568966-11.873316271552,3.6014951508621-11.873316271552l0.30206088362069,0z M157.85129310345,31.367860991379q2.5094288793104,0,3.6014951508621,4.5309132543104l-1.231478987069,8.2950565732759l0,0.60412176724138q0,5.6926858836207,8.6668238146552,6.505926724138q1.463833512931,0,1.463833512931,0.85971174568966q0,3.6014951508621-4.2288523706897,3.6014951508621l-0.30206088362069,0q-5.158270474138,0-9.6427128232759-7.969760237069l-0.069706357758621,0q-7.0403421336207,9.5033001077587-10.548895474138,9.5033001077587l-1.2082435344828,0q-4.5076778017242,0-5.4603313577587-6.9706357758621q0-10.363011853448,11.803609913793-17.70541487069q4.1126751077586-1.2547144396552,7.1565193965518-1.2547144396552z M143.58472521552,49.468278556035l0,1.3708917025862l0.25558997844828,1.231478987069l0.092941810344828,0q1.9517780172414,0,8.2950565732759-7.0635775862069l4.0197332974138-8.1556438577587l-0.092941810344828-0.092941810344828l-2.2770743534483,0q-5.390625,0-10.014480064655,11.315665409483z M191.1802262931,14.568628771551q4.4612068965517,1.0688308189655,5.6462149784483,2.6488415948276l0,9.6427128232759q0,8.5738820043104-1.6729525862069,23.886045258621l0.34853178879311,0q1.2547144396552,0,13.941271551724-5.6229795258621l3.9732623922414-0.673828125l1.9982489224138,0q4.6470905172414,0.673828125,4.6470905172414,3.3226697198276q0,2.5094288793104-9.6194773706897,3.3226697198276q-13.174501616379,5.9715113146552-17.612473060345,5.9715113146552q-3.6479660560345,0-3.6479660560345-3.6479660560345l0-0.9991244612069q2.6488415948276-20.005724676724,2.6488415948276-25.233701508621l0-0.9991244612069l-1.3244207974138-8.9688846982759l0-1.6497171336207z M239.41005522629,31.29815463362q5.948275862069,0.92941810344828,5.948275862069,5.6462149784483q0,4.9491514008621-7.8768184267242,8.0162311422414q-7.853582974138,3.3226697198276-9.875067349138,3.3226697198276l-0.6505926724138,0l-0.30206088362069-0.30206088362069l-0.092941810344828,0l-0.13941271551724,0.16264816810345l0,1.3941271551724q0.51117995689655,3.0903151939655,2.9276670258621,3.0903151939655q3.0206088362069,0,15.707165948276-6.0179822198276l5.0653286637931-0.90618265086207l0.41823814655173,0.46470905172414l0,0.39500269396552q0,5.2279768318966-19.146012931035,10.432718211207l-1.7426589439655,0.30206088362069l-1.7426589439655,0q-5.1815059267242,0-6.5523976293104-7.7374057112069l0.27882543103448-3.2761988146552l-0.85971174568966-2.3932516163793q0-2.6488415948276,3.810614224138-3.8338496767242q2.4861934267242-5.0188577586207,10.107421875-7.8303475215518q1.9285425646552-0.92941810344828,4.716796875-0.92941810344828z M228.86115975216,43.008822737069l-0.11617726293104,0q7.7838766163794-1.4870689655172,11.64096174569-5.3209186422414l0.20911907327586-0.23235452586207l0-0.20911907327586q0-0.673828125-2.9276670258621-0.673828125l-0.58088631465518,0q-4.484442349138,0-8.2253502155173,6.4362203663793z M270.21329471983,31.367860991379q2.5094288793104,0,3.6014951508621,4.5309132543104l-1.231478987069,8.2950565732759l0,0.60412176724138q0,5.6926858836207,8.6668238146552,6.505926724138q1.463833512931,0,1.463833512931,0.85971174568966q0,3.6014951508621-4.2288523706897,3.6014951508621l-0.30206088362069,0q-5.158270474138,0-9.6427128232759-7.969760237069l-0.069706357758621,0q-7.0403421336207,9.5033001077587-10.548895474138,9.5033001077587l-1.2082435344828,0q-4.5076778017242,0-5.4603313577587-6.9706357758621q0-10.363011853448,11.803609913793-17.70541487069q4.1126751077586-1.2547144396552,7.1565193965518-1.2547144396552z M255.9467268319,49.468278556035l0,1.3708917025862l0.25558997844828,1.231478987069l0.092941810344828,0q1.9517780172414,0,8.2950565732759-7.0635775862069l4.0197332974138-8.1556438577587l-0.092941810344828-0.092941810344828l-2.2770743534483,0q-5.390625,0-10.014480064655,11.315665409483z M304.50185210129,19.564251077586l0.62735721982759,0q2.3467807112069,0.39500269396552,2.5326643318966,1.34765625l0,1.8123653017241l-0.30206088362069,10.572130926724q2.4397225215517,1.5103044181035,2.4397225215517,4.0662042025862l-0.9758890086207,0.9758890086207l-1.463833512931,0l0,1.0920662715517l0.30206088362069,5.0653286637931l0.48794450431035,0q2.3467807112069,0,2.5558997844828,0.9991244612069l0,0.3252963362069q0,2.5094288793104-2.137661637931,4.0197332974138l0,0.20911907327586l1.231478987069,5.1815059267242l0,0.95265355603449q-0.20911907327586,0.9991244612069-2.579135237069,0.9991244612069q-2.8347252155173-1.5103044181035-2.8347252155173-4.9723868534483l0-1.0920662715517q-6.3897494612069,1.2082435344828-9.5962419181035,1.2082435344828l-1.8356007543104,0q-7.9232893318966,0-9.2244746767242-5.5765086206897l-0.30206088362069-1.2082435344828q0-6.8776939655173,19.750134698276-12.268318965517l-0.60412176724138-9.3406519396552q0.62735721982759-4.3682650862069,1.9285425646552-4.3682650862069z M288.8179216056,45.843547952586l0,0.20911907327586q3.0670797413793,1.4870689655172,6.2735721982759,1.7891298491379l8.2485856681035-1.2082435344828l-0.16264816810345-0.16264816810345l0-3.0903151939655q0-5.3441540948276-1.3708917025862-5.3441540948276q-10.107421875,3.0206088362069-12.98861799569,7.8071120689656z"
         id="path4490" />
    </svg>
  </defs>
  <use
     id="SvgjsUse1051"
     xlink:href="#t1496141575442"
     x="14.647148132324219"
     y="130.22801780700684"
     style="fill:#008dd5;fill-opacity:1"
     fill="#193441" />
  <use
     id="SvgjsUse1052"
     xlink:href="#a1496141575442"
     fill="#193441"
     x="118"
     y="86.46026229858398"
     style="fill:#008dd5;fill-opacity:1" />
</svg>
